<svg width="10" height="17" viewBox="0 0 10 17" fill="none" xmlns="http://www.w3.org/2000/svg">
<path d="M0.96997 0.970004C0.82952 1.11063 0.75063 1.30125 0.75063 1.5C0.75063 1.69875 0.82952 1.88938 0.96997 2.03L7.43997 8.5L0.96997 14.97C0.896283 15.0387 0.837181 15.1215 0.796189 15.2135C0.755197 15.3055 0.733156 15.4048 0.731379 15.5055C0.729602 15.6062 0.748127 15.7062 0.785848 15.7996C0.823569 15.893 0.879713 15.9778 0.950932 16.049C1.02215 16.1203 1.10698 16.1764 1.20037 16.2141C1.29376 16.2518 1.39379 16.2704 1.49449 16.2686C1.5952 16.2668 1.69451 16.2448 1.78651 16.2038C1.87851 16.1628 1.96131 16.1037 2.02997 16.03L9.55997 8.5L2.02997 0.970004C1.88935 0.829553 1.69872 0.750664 1.49997 0.750664C1.30122 0.750664 1.1106 0.829553 0.96997 0.970004Z" fill="white"/>
</svg>
