<svg width="10" height="17" viewBox="0 0 10 17" fill="none" xmlns="http://www.w3.org/2000/svg">
<path d="M9.03 0.970004C9.17045 1.11063 9.24934 1.30125 9.24934 1.5C9.24934 1.69875 9.17045 1.88938 9.03 2.03L2.56 8.5L9.03 14.97C9.10369 15.0387 9.16279 15.1215 9.20378 15.2135C9.24477 15.3055 9.26682 15.4048 9.26859 15.5055C9.27037 15.6062 9.25185 15.7062 9.21412 15.7996C9.1764 15.893 9.12026 15.9778 9.04904 16.049C8.97782 16.1203 8.89299 16.1764 8.7996 16.2141C8.70621 16.2518 8.60618 16.2704 8.50548 16.2686C8.40478 16.2668 8.30546 16.2448 8.21346 16.2038C8.12146 16.1628 8.03866 16.1037 7.97 16.03L0.440002 8.5L7.97 0.970004C8.11063 0.829553 8.30125 0.750664 8.5 0.750664C8.69875 0.750664 8.88938 0.829553 9.03 0.970004Z" fill="white"/>
</svg>
