<svg width="16" height="17" viewBox="0 0 16 17" fill="none" xmlns="http://www.w3.org/2000/svg">
<path d="M8.15199 16.72H7.99999C5.88494 16.6999 3.86391 15.843 2.37897 14.3367C0.894031 12.8305 0.0660321 10.7975 0.0760791 8.68234C0.0861262 6.56721 0.933402 4.54214 2.43259 3.05006C3.93177 1.55798 5.96084 0.720337 8.07599 0.720337C10.1911 0.720337 12.2202 1.55798 13.7194 3.05006C15.2186 4.54214 16.0659 6.56721 16.0759 8.68234C16.0859 10.7975 15.2579 12.8305 13.773 14.3367C12.2881 15.843 10.267 16.6999 8.15199 16.72ZM7.74199 2.51798C7.51599 2.79098 7.27899 3.23098 7.06499 3.84098C6.69599 4.89598 6.43899 6.33698 6.37799 7.96998H9.92499C9.86499 6.33698 9.60699 4.89598 9.23799 3.84098C9.02499 3.23098 8.78799 2.79098 8.56199 2.51798C8.36799 2.28298 8.23599 2.23298 8.17699 2.22198H8.13299C8.07799 2.22898 7.94299 2.27398 7.74199 2.51798ZM4.87699 7.96998C4.93899 6.19898 5.21699 4.58398 5.64999 3.34598C5.74899 3.06198 5.85799 2.79198 5.97899 2.53998C4.79831 2.92708 3.75315 3.64414 2.96706 4.60638C2.18096 5.56862 1.6868 6.73581 1.54299 7.96998H4.87699ZM1.54299 9.46998C1.6868 10.7041 2.18096 11.8713 2.96706 12.8336C3.75315 13.7958 4.79831 14.5129 5.97899 14.9C5.85439 14.6375 5.74422 14.3685 5.64899 14.094C5.21599 12.856 4.93899 11.241 4.87699 9.46998H1.54299ZM6.37799 9.46998C6.43899 11.103 6.69599 12.544 7.06499 13.599C7.27899 14.209 7.51599 14.649 7.74199 14.922C7.94399 15.166 8.07799 15.212 8.13299 15.219L8.17699 15.218C8.23699 15.208 8.36699 15.157 8.56199 14.922C8.78799 14.649 9.02499 14.209 9.23799 13.599C9.60799 12.544 9.86399 11.103 9.92499 9.46998H6.37799ZM11.426 9.46998C11.365 11.241 11.087 12.856 10.654 14.094C10.572 14.329 10.483 14.554 10.386 14.768C11.4802 14.3355 12.4367 13.6144 13.1535 12.6815C13.8704 11.7485 14.3209 10.6386 14.457 9.46998H11.427H11.426ZM14.457 7.96998C14.3208 6.80134 13.8703 5.6915 13.1534 4.75857C12.4365 3.82564 11.4801 3.10452 10.386 2.67198C10.483 2.88598 10.572 3.11198 10.654 3.34598C11.087 4.58398 11.365 6.19898 11.426 7.96998H14.457Z" fill="white"/>
</svg>
