<svg width="20" height="22" viewBox="0 0 20 22" fill="none" xmlns="http://www.w3.org/2000/svg">
<path d="M11.5 0.605003C11.0439 0.341698 10.5266 0.203079 10 0.203079C9.47339 0.203079 8.95606 0.341698 8.5 0.605003L1 4.935C0.695969 5.11054 0.443498 5.363 0.267962 5.66703C0.0924258 5.97106 8.91844e-06 6.31594 0 6.667V20.09C0 20.3552 0.105357 20.6096 0.292893 20.7971C0.48043 20.9846 0.734784 21.09 1 21.09H7C7.26522 21.09 7.51957 20.9846 7.70711 20.7971C7.89464 20.6096 8 20.3552 8 20.09V14.09H12V20.09C12 20.3552 12.1054 20.6096 12.2929 20.7971C12.4804 20.9846 12.7348 21.09 13 21.09H19C19.2652 21.09 19.5196 20.9846 19.7071 20.7971C19.8946 20.6096 20 20.3552 20 20.09V6.667C20 6.31594 19.9076 5.97106 19.732 5.66703C19.5565 5.363 19.304 5.11054 19 4.935L11.5 0.605003Z" fill="white"/>
</svg>
