<svg width="20" height="21" viewBox="0 0 20 21" fill="none" xmlns="http://www.w3.org/2000/svg">
<path d="M12.5 0.223996C12.652 0.136228 12.8245 0.0900218 13 0.0900218C13.1755 0.0900218 13.348 0.136228 13.5 0.223996L19.5 3.688C19.652 3.77576 19.7782 3.902 19.866 4.05401C19.9538 4.20603 20 4.37846 20 4.554V19.09C20 19.3552 19.8946 19.6096 19.7071 19.7971C19.5196 19.9846 19.2652 20.09 19 20.09H13C12.7348 20.09 12.4804 19.9846 12.2929 19.7971C12.1054 19.6096 12 19.3552 12 19.09V1.09C12 0.914464 12.0462 0.742025 12.134 0.590011C12.2217 0.437996 12.348 0.311763 12.5 0.223996ZM14 2.822V18.09H18V5.131L14 2.822ZM1 20.09C0.734784 20.09 0.48043 19.9846 0.292893 19.7971C0.105357 19.6096 0 19.3552 0 19.09V1.09C0 0.82478 0.105357 0.570426 0.292893 0.38289C0.48043 0.195353 0.734784 0.0899963 1 0.0899963C1.26522 0.0899963 1.51957 0.195353 1.70711 0.38289C1.89464 0.570426 2 0.82478 2 1.09V19.09C2 19.3552 1.89464 19.6096 1.70711 19.7971C1.51957 19.9846 1.26522 20.09 1 20.09ZM7 20.09C6.73478 20.09 6.48043 19.9846 6.29289 19.7971C6.10536 19.6096 6 19.3552 6 19.09V1.09C6 0.82478 6.10536 0.570426 6.29289 0.38289C6.48043 0.195353 6.73478 0.0899963 7 0.0899963C7.26522 0.0899963 7.51957 0.195353 7.70711 0.38289C7.89464 0.570426 8 0.82478 8 1.09V19.09C8 19.3552 7.89464 19.6096 7.70711 19.7971C7.51957 19.9846 7.26522 20.09 7 20.09Z" fill="#B3B3B3"/>
</svg>
