<svg xmlns="http://www.w3.org/2000/svg" width="40" height="41" viewBox="0 0 40 41" fill="none">
<rect y="0.25" width="40" height="40" rx="20" fill="#808080"/>
<g clip-path="url(#clip0_1_272)">
<path d="M28 20.25C27.9998 18.7212 27.5615 17.2245 26.737 15.937C25.9126 14.6496 24.7365 13.6253 23.3481 12.9855C21.9596 12.3457 20.4169 12.1171 18.9026 12.3269C17.3882 12.5366 15.9657 13.1758 14.8034 14.1689C13.641 15.1619 12.7876 16.4673 12.3441 17.9303C11.9005 19.3933 11.8855 20.9528 12.3007 22.4241C12.716 23.8954 13.5441 25.217 14.6871 26.2323C15.83 27.2476 17.24 27.9141 18.75 28.153V22.563H16.719V20.25H18.75V18.487C18.75 16.482 19.944 15.375 21.772 15.375C22.647 15.375 23.562 15.531 23.562 15.531V17.5H22.554C21.56 17.5 21.25 18.117 21.25 18.75V20.25H23.469L23.114 22.563H21.25V28.153C23.1317 27.8549 24.8454 26.8952 26.0827 25.4465C27.32 23.9978 27.9999 22.1552 28 20.25Z" fill="white"/>
</g>
<defs fill="#000000">
<clipPath id="clip0_1_272" fill="#000000">
<rect width="16" height="16" fill="white" transform="translate(12 12.25)"/>
</clipPath>
</defs>
</svg>