<svg width="40" height="41" viewBox="0 0 40 41" fill="none" xmlns="http://www.w3.org/2000/svg">
<rect y="0.25" width="40" height="40" rx="20" fill="#292929"/>
<g clip-path="url(#clip0_1_268)">
<path d="M25.54 16.139C26.1788 15.764 26.6542 15.1637 26.873 14.456C26.2781 14.8128 25.6252 15.0626 24.944 15.194C24.6641 14.8927 24.325 14.6524 23.948 14.488C23.5644 14.3186 23.1493 14.232 22.73 14.234C22.331 14.2279 21.935 14.3036 21.5664 14.4565C21.1978 14.6094 20.8645 14.8362 20.587 15.123C20.2998 15.4016 20.0728 15.7362 19.9199 16.1059C19.767 16.4757 19.6915 16.8729 19.698 17.273C19.698 17.485 19.725 17.715 19.778 17.964C18.5632 17.9069 17.375 17.589 16.294 17.032C15.2261 16.4869 14.285 15.723 13.532 14.79C13.2606 15.2516 13.1179 15.7775 13.119 16.313C13.119 16.832 13.239 17.313 13.48 17.758C13.72 18.203 14.05 18.563 14.468 18.838C13.9862 18.8304 13.5141 18.7018 13.095 18.464V18.504C13.095 19.229 13.325 19.869 13.785 20.424C14.2236 20.9668 14.8392 21.3378 15.524 21.472C15.0797 21.5977 14.6121 21.6169 14.159 21.528C14.3439 22.1288 14.7164 22.6545 15.222 23.028C15.7308 23.4159 16.3522 23.6276 16.992 23.631C15.9228 24.4862 14.5911 24.9461 13.222 24.933C12.979 24.933 12.738 24.917 12.5 24.885C13.8826 25.7862 15.4997 26.2609 17.15 26.25C18.055 26.25 18.913 26.13 19.722 25.889C20.532 25.649 21.248 25.319 21.869 24.901C22.488 24.4855 23.0533 23.9952 23.552 23.441C24.052 22.885 24.463 22.286 24.786 21.643C25.1052 21.0098 25.3527 20.343 25.524 19.655C25.7236 18.8616 25.8065 18.0433 25.77 17.226C26.361 16.7981 26.8716 16.269 27.278 15.663C26.718 15.912 26.138 16.07 25.54 16.139Z" fill="white"/>
</g>
<defs>
<clipPath id="clip0_1_268">
<rect width="16" height="16" fill="white" transform="translate(12 12.25)"/>
</clipPath>
</defs>
</svg>
