<svg xmlns="http://www.w3.org/2000/svg" width="40" height="41" viewBox="0 0 40 41" fill="none">
<rect y="0.25" width="40" height="40" rx="20" fill="#808080"/>
<g clip-path="url(#clip0_1_263)">
<path d="M20 13.69C22.136 13.69 22.389 13.699 23.233 13.737C24.013 13.773 24.436 13.903 24.718 14.013C25.066 14.141 25.381 14.345 25.639 14.611C25.905 14.869 26.109 15.184 26.238 15.532C26.348 15.814 26.478 16.238 26.513 17.017C26.552 17.861 26.56 18.114 26.56 20.25C26.56 22.386 26.552 22.639 26.513 23.482C26.478 24.262 26.347 24.686 26.238 24.968C26.1047 25.3128 25.9007 25.626 25.6393 25.8874C25.3779 26.1488 25.0648 26.3527 24.72 26.486C24.438 26.596 24.014 26.726 23.234 26.761C22.391 26.8 22.137 26.808 20.001 26.808C17.865 26.808 17.611 26.8 16.769 26.761C15.989 26.726 15.565 26.596 15.283 26.486C14.935 26.3578 14.6203 26.1531 14.362 25.887C14.096 25.629 13.8913 25.3147 13.763 24.967C13.653 24.685 13.523 24.261 13.488 23.481C13.45 22.637 13.441 22.385 13.441 20.249C13.441 18.113 13.45 17.859 13.488 17.016C13.524 16.236 13.654 15.813 13.763 15.531C13.892 15.183 14.096 14.868 14.362 14.61C14.6203 14.3444 14.9346 14.1398 15.282 14.011C15.565 13.901 15.989 13.771 16.769 13.736C17.612 13.698 17.865 13.689 20.001 13.689L20 13.69ZM20.001 12.248C17.829 12.248 17.556 12.258 16.703 12.296C15.849 12.336 15.268 12.472 14.76 12.669C14.2263 12.8702 13.7427 13.1851 13.343 13.592C12.936 13.992 12.621 14.475 12.42 15.009C12.222 15.517 12.087 16.099 12.048 16.951C12.01 17.802 12 18.076 12 20.25C12 22.422 12.01 22.695 12.048 23.548C12.088 24.401 12.222 24.981 12.42 25.489C12.62 26.023 12.936 26.506 13.343 26.906C13.743 27.313 14.226 27.628 14.76 27.829C15.268 28.027 15.85 28.162 16.702 28.201C17.554 28.24 17.828 28.249 20.001 28.249C22.173 28.249 22.446 28.239 23.299 28.201C24.152 28.161 24.732 28.027 25.239 27.829C25.7706 27.6237 26.2534 27.3095 26.6564 26.9065C27.0594 26.5035 27.3737 26.0207 27.579 25.489C27.778 24.981 27.913 24.399 27.952 23.547C27.991 22.696 28 22.422 28 20.249C28 18.076 27.99 17.804 27.952 16.951C27.912 16.098 27.778 15.518 27.58 15.011C27.3791 14.4769 27.0641 13.993 26.657 13.593C26.2573 13.1861 25.7737 12.8712 25.24 12.67C24.732 12.473 24.15 12.337 23.298 12.299C22.447 12.258 22.173 12.249 20 12.249L20.001 12.248Z" fill="#ffffff"/>
<path d="M20 16.142C18.9105 16.142 17.8656 16.5748 17.0952 17.3452C16.3248 18.1156 15.892 19.1605 15.892 20.25C15.892 21.3396 16.3248 22.3844 17.0952 23.1548C17.8656 23.9252 18.9105 24.358 20 24.358C21.0895 24.358 22.1344 23.9252 22.9048 23.1548C23.6752 22.3844 24.108 21.3396 24.108 20.25C24.108 19.1605 23.6752 18.1156 22.9048 17.3452C22.1344 16.5748 21.0895 16.142 20 16.142ZM20 22.917C19.6454 22.9239 19.2929 22.86 18.9633 22.729C18.6336 22.598 18.3334 22.4027 18.0802 22.1543C17.8269 21.9059 17.6258 21.6095 17.4884 21.2825C17.3511 20.9554 17.2804 20.6043 17.2804 20.2495C17.2804 19.8948 17.3511 19.5437 17.4884 19.2166C17.6258 18.8896 17.8269 18.5932 18.0802 18.3448C18.3334 18.0964 18.6336 17.901 18.9633 17.7701C19.2929 17.6391 19.6454 17.5752 20 17.582C20.6986 17.5956 21.3639 17.8826 21.8531 18.3813C22.3423 18.8801 22.6164 19.5509 22.6164 20.2495C22.6164 20.9482 22.3423 21.619 21.8531 22.1178C21.3639 22.6165 20.6986 22.9035 20 22.917ZM24.27 16.939C24.5246 16.939 24.7688 16.8379 24.9489 16.6579C25.1289 16.4778 25.23 16.2337 25.23 15.979C25.23 15.7244 25.1289 15.4803 24.9489 15.3002C24.7688 15.1202 24.5246 15.019 24.27 15.019C24.0154 15.019 23.7712 15.1202 23.5912 15.3002C23.4112 15.4803 23.31 15.7244 23.31 15.979C23.31 16.2337 23.4112 16.4778 23.5912 16.6579C23.7712 16.8379 24.0154 16.939 24.27 16.939Z" fill="#ffffff"/>
</g>
<defs fill="#601010">
<clipPath id="clip0_1_263" fill="#601010">
<rect width="16" height="16" fill="#ffffff" transform="translate(12 12.25)"/>
</clipPath>
</defs>
</svg>