<svg width="24" height="25" viewBox="0 0 24 25" fill="none" xmlns="http://www.w3.org/2000/svg">
<rect y="0.0899963" width="24" height="24" rx="2" fill="#FFFFFF"/>
<g clip-path="url(#clip0_1_320)">
<path d="M17.4375 12.09C17.4375 12.2392 17.3782 12.3823 17.2727 12.4877C17.1673 12.5932 17.0242 12.6525 16.875 12.6525H12.5625V16.965C12.5625 17.1142 12.5032 17.2573 12.3977 17.3627C12.2923 17.4682 12.1492 17.5275 12 17.5275C11.8508 17.5275 11.7077 17.4682 11.6023 17.3627C11.4968 17.2573 11.4375 17.1142 11.4375 16.965V12.6525H7.125C6.97582 12.6525 6.83274 12.5932 6.72725 12.4877C6.62176 12.3823 6.5625 12.2392 6.5625 12.09C6.5625 11.9408 6.62176 11.7977 6.72725 11.6922C6.83274 11.5868 6.97582 11.5275 7.125 11.5275H11.4375V7.215C11.4375 7.06581 11.4968 6.92274 11.6023 6.81725C11.7077 6.71176 11.8508 6.6525 12 6.6525C12.1492 6.6525 12.2923 6.71176 12.3977 6.81725C12.5032 6.92274 12.5625 7.06581 12.5625 7.215V11.5275H16.875C17.0242 11.5275 17.1673 11.5868 17.2727 11.6922C17.3782 11.7977 17.4375 11.9408 17.4375 12.09Z" fill="black"/>
</g>
<defs>
<clipPath id="clip0_1_320">
<rect width="12" height="12" fill="white" transform="translate(6 6.09)"/>
</clipPath>
</defs>
</svg>
