<svg width="22" height="22" viewBox="0 0 22 22" fill="none" xmlns="http://www.w3.org/2000/svg">
<path d="M9.53298 0.368996C4.35298 0.368996 0.125977 4.509 0.125977 9.648C0.125977 14.787 4.35198 18.927 9.53298 18.927C11.767 18.927 13.823 18.157 15.44 16.869L19.793 21.222C19.8852 21.3175 19.9956 21.3937 20.1176 21.4461C20.2396 21.4985 20.3708 21.5261 20.5036 21.5272C20.6364 21.5284 20.768 21.5031 20.8909 21.4528C21.0138 21.4025 21.1255 21.3283 21.2194 21.2344C21.3133 21.1405 21.3875 21.0288 21.4378 20.906C21.4881 20.7831 21.5134 20.6514 21.5122 20.5186C21.5111 20.3858 21.4835 20.2546 21.4311 20.1326C21.3787 20.0106 21.3025 19.9002 21.207 19.808L16.863 15.464C18.2079 13.8243 18.942 11.7687 18.94 9.648C18.94 4.508 14.714 0.367996 9.53298 0.367996V0.368996ZM2.12598 9.648C2.12598 5.642 5.42798 2.368 9.53298 2.368C13.638 2.368 16.94 5.642 16.94 9.648C16.94 13.654 13.638 16.927 9.53298 16.927C5.42798 16.927 2.12598 13.655 2.12598 9.648Z" fill="#B3B3B3"/>
</svg>
